<svg xmlns="http://www.w3.org/2000/svg" id="Layer_1" viewBox="0 0 66 66"><g><g><path d="m9.59 42.54 8.48-13.19.76-1.18c.2-.31.26-.68.18-1.03-.09-.37-.33-.69-.68-.89l-4.74-2.77c-.26-.15-.54-.22-.82-.22-.52 0-1.03.25-1.32.7l-9.23 14.36c-.2.31-.26.68-.18 1.03.09.37.33.69.68.89l4.74 2.77c.73.43 1.68.22 2.13-.46z"></path><path d="m18 55.92 2.03-2.46c.03-.04.07-.08.11-.11l.51-.62c.16-.19.25-.4.28-.66.05-.35-.05-.7-.27-.98-.07-.09-.16-.18-.26-.25-.15-.11-.32-.19-.49-.24-.06-.02-.11-.02-.17-.03-.13-.02-.26-.04-.39-.03-.03 0-.06.01-.09.01-.16.02-.33.07-.47.14-.02.01-.04.03-.07.04-.15.09-.3.19-.41.33l-2.64 3.18c-.24.29-.34.63-.3.98s.23.67.53.9c.65.52 1.59.42 2.1-.2z"></path><path d="m21.82 58.94c.02-.03.04-.06.07-.09l2.64-3.18c.01-.02.04-.05.06-.07.02-.03.05-.06.08-.08l.53-.64c.08-.09.14-.2.19-.31s.08-.22.09-.35c.07-.48-.13-.94-.52-1.23-.15-.12-.32-.19-.5-.25-.06-.02-.12-.02-.18-.03-.13-.02-.25-.04-.38-.03-.03 0-.06.01-.09.01-.16.02-.32.07-.47.14-.02.01-.04.03-.07.04-.15.09-.3.19-.41.33l-3.99 4.8c-.23.28-.33.63-.29.98.04.36.23.68.53.9.65.5 1.59.4 2.1-.22z"></path><path d="m39.72 2.48c0-.27-.21-.48-.48-.48h-9.38c-.27 0-.48.21-.48.48v2.59h10.34z"></path><path d="m26.04 56.97c-.01.01 0 0 0 0z"></path><path d="m23.91 15.29h.29 6.82v-.57c0-.45.15-.86.4-1.19.36-.49.94-.81 1.59-.81h3.06c1.1 0 2 .9 2 2v.57h6.81.3c.55 0 .99-.44.99-.99v-6.24c0-.55-.44-.99-.99-.99h-21.27c-.55 0-.98.43-.98.99v6.24c0 .55.44.99.98.99z"></path><path d="m33.02 15.17v1.12 1.57h.77l2.28-.01v-1.56-.53-1.04h-1.53l-1.53.01z"></path><path d="m38.07 17.86c0 .41-.13.79-.34 1.11-.36.53-.97.88-1.65.88h-3.06c-1.1 0-1.99-.89-1.99-1.99v-.57h-5.83v5.36c0 .55.44.99.99.99h16.7c.56 0 .99-.43.99-.99v-5.36h-5.81z"></path><path d="m57 24.57c-.25-.56-.83-.89-1.43-.89-.21 0-.42.04-.62.12l-5.08 2.05c-.39.16-.68.45-.83.81-.14.34-.13.71.02 1.05l6.89 15.49c.33.76 1.26 1.11 2.06.78l5.08-2.06c.39-.16.69-.45.83-.82.14-.34.13-.71-.02-1.05z"></path><path d="m39.36 31.03-6.71-.66c-1.65-.15-3.29.35-4.5 1.41l-.84.72c-.01.01-.03.03-.04.04l-2.5 2.16c-.16.14-.31.29-.45.44-.86.95-1.32 2.18-1.28 3.43.01.17.02.34.04.51l.55 3.95c.24-.04.48-.1.7-.18.68-.24 1.27-.65 1.73-1.2.41-.5.69-1.1.8-1.74l.31-1.85c.25-1.46 1.31-2.63 2.77-3.07.22-.07.44-.11.65-.14.06-.01.11-.01.17-.02.17-.02.34-.03.51-.03h.15c.19.01.37.03.55.06.03.01.06.01.09.01.73.15 1.39.51 1.9 1.05l14.66 10.88.06-.07c1.19-1.43 2.75-2.61 4.51-3.4l.5-.22-5.87-13.21c-2.66 1.02-5.57 1.41-8.46 1.13z"></path><path d="m27.75 59.38c.03-.03.05-.06.08-.09l.57-.7c.16-.2.26-.42.3-.65.06-.47-.14-.93-.53-1.23-.62-.47-1.53-.39-2.05.18-.02.02-.04.04-.06.06-.01.01-.01.01-.02.02l-2.54 3.07c-.02.03-.04.06-.06.09-.23.29-.34.63-.3.98s.23.68.53.91c.65.48 1.59.38 2.1-.23z"></path><path d="m48.18 48.97-16.3-12.06c-.06-.02-.11-.04-.17-.05-.13-.03-.26-.05-.39-.06-.07 0-.14-.01-.21-.01-.2.01-.4.03-.6.09-.55.16-.98.52-1.21.99-.08.16-.13.32-.16.5l-.31 1.86c-.17.99-.59 1.91-1.23 2.68-.73.89-1.7 1.53-2.79 1.88-.36.11-.74.2-1.13.24-.96.12-1.86-.55-2-1.5l-.58-4.18c-.29-2.01.35-4.03 1.73-5.55.2-.22.41-.42.63-.62l.44-.38c-1.32-.15-2.59-.53-3.74-1.13l-.9-.46-7.49 11.65.29.22c1.72 1.29 2.87 3.18 3.16 5.2.04.27.22.54.5.75l1.04.79.01-.01c1.17-1.41 3.34-1.66 4.84-.54.13.1.25.21.37.33.04.04.07.08.11.12.07.08.14.16.21.25.04.05.07.1.1.15.05.08.1.17.15.25.03.06.06.11.09.17.04.09.08.17.11.26.01.04.03.07.05.11.04-.02.09-.02.13-.04.05-.01.09-.03.14-.04.19-.05.37-.09.57-.12h.01c.2-.02.39-.02.59-.01.05 0 .09.01.14.01.2.02.39.05.58.1h.01c.19.05.38.12.56.21.04.02.09.04.13.06.18.09.36.2.53.32.12.09.23.19.33.29.04.04.07.08.1.11.06.07.13.14.19.21.04.05.07.1.1.15.05.07.1.14.14.21.03.06.06.11.09.17.04.07.08.14.11.21.03.06.04.12.07.18.03.07.06.15.08.22.02.06.03.13.04.19.02.08.04.15.05.23.01.07.01.13.02.2.01.08.02.16.02.24 0 .07-.01.14-.01.2 0 .07 0 .13-.01.2.03 0 .05.01.08.01.06 0 .12.02.18.02.13.02.27.04.4.07.06.02.13.03.19.05.13.04.26.09.39.15.05.02.11.04.16.07.18.09.35.19.51.31.97.74 1.47 1.92 1.31 3.1 0 .02 0 .03-.01.05.04.01.09.03.13.03.18.03.35.08.52.14.07.02.14.05.2.08.22.1.44.21.65.37.88.66 1.34 1.75 1.19 2.83-.03.18-.07.36-.12.53l.46.35c.45.35.99.52 1.52.48.49-.03.94-.25 1.23-.59.32-.39.35-.82.31-1.1-.06-.51-.36-1-.82-1.35l-2.38-1.8c-.44-.33-.53-.96-.2-1.4s.96-.53 1.4-.2l2.38 1.8s0 0 .01.01l2.23 1.68c.44.34.97.5 1.52.46.36-.03.86-.15 1.22-.59.32-.39.35-.8.32-1.09-.06-.51-.36-1.01-.82-1.36-.01-.01-.01-.02-.03-.03l-4.58-3.46c-.44-.33-.53-.96-.2-1.4s.96-.53 1.4-.2l4.61 3.48c.01.01.01.02.02.03l2.2 1.65c.44.34.98.5 1.54.47.49-.04.94-.25 1.23-.59.32-.39.35-.82.32-1.12-.06-.51-.36-1-.82-1.35l-6.84-5.16c-.44-.33-.53-.96-.2-1.4s.96-.53 1.4-.2l6.83 5.16 2.23 1.69c.44.34.99.49 1.52.46.37-.02.86-.14 1.24-.59.25-.3.36-.69.31-1.1-.06-.51-.36-.99-.82-1.33l-4.79-3.54c-.02 0-.04-.01-.06-.02z"></path><path d="m31.18 61.91c.06-.08.11-.16.14-.25.03-.07.05-.14.06-.22.04-.27-.04-.54-.21-.76-.06-.07-.12-.14-.2-.19-.51-.38-1.24-.32-1.66.15-.02.02-.03.04-.05.05l-1.31 1.6c-.19.22-.27.49-.24.76.03.28.18.53.42.71.52.39 1.28.31 1.69-.18l1.31-1.6c.02-.03.04-.05.05-.07z"></path></g></g></svg>