<svg xmlns="http://www.w3.org/2000/svg" id="Capa_1" height="512" viewBox="0 0 512 512" width="512"><g><path d="m275.43 0v236.57h236.57v-236.57zm72.96 92.11 21.22-21.22 25.64 25.64 25.64-25.64 21.22 21.22-25.64 25.64 25.64 25.64-21.22 21.22-25.64-25.64-25.64 25.64-21.22-21.22 25.64-25.64z"></path><path d="m0 512h236.57v-236.57h-236.57zm167.11-97.11-21.22 21.22-25.64-25.64-25.64 25.64-21.22-21.22 25.64-25.64-25.64-25.64 21.22-21.22 25.64 25.64 25.64-25.64 21.22 21.22-25.64 25.64z"></path><path d="m275.43 512h236.57v-236.57h-236.57zm172.18-139.39-65.11 65.1-37.05-37.04 21.22-21.22 15.83 15.84 43.89-43.9z"></path><path d="m0 236.57h236.57v-236.57h-236.57zm169.55-142.96-65.11 65.1-37.05-37.04 21.22-21.22 15.83 15.84 43.89-43.9z"></path></g></svg>