<svg xmlns="http://www.w3.org/2000/svg" id="Layer_1" height="512" viewBox="0 0 512 512" width="512"><path clip-rule="evenodd" d="m240.228 230.249 35.773-36.13c4.235-4.277 11.143-4.289 15.407-.048 4.264 4.24 4.277 11.129.047 15.398-14.506 14.641-28.915 29.378-43.488 43.952-4.26 4.261-11.171 4.26-15.432 0l-24.178-24.178c-4.26-4.26-4.26-11.171 0-15.432 4.26-4.26 11.172-4.26 15.432 0zm-166.716 131.409c-11.689 0-21.165 9.476-21.165 21.165s9.476 21.165 21.165 21.165 21.165-9.476 21.165-21.165-9.476-21.165-21.165-21.165zm352.757 0c-11.689 0-21.165 9.476-21.165 21.165s9.476 21.165 21.165 21.165 21.165-9.476 21.165-21.165c.001-11.689-9.475-21.165-21.165-21.165zm-335.204-329.561 11.452 30.162c.344.907 1.146 1.489 2.114 1.536l32.225 1.571c2.191.107 3.089 2.868 1.378 4.242l-25.148 20.212c-.756.607-1.062 1.549-.808 2.485l8.464 31.133c.576 2.118-1.772 3.824-3.608 2.622l-26.994-17.671c-.811-.531-1.802-.531-2.613 0l-26.993 17.671c-1.836 1.202-4.184-.504-3.608-2.622l8.464-31.133c.254-.936-.052-1.878-.808-2.485l-25.147-20.212c-1.71-1.375-.813-4.136 1.378-4.242l32.225-1.571c.969-.047 1.77-.629 2.114-1.536l11.452-30.162c.774-2.04 3.686-2.04 4.461 0zm372.038 33.969c-1.313-5.521-3.502-10.794-6.477-15.626l4.507-10.148-11.964-11.964-10.151 4.509c-4.831-2.975-10.103-5.163-15.622-6.477l-3.989-10.36h-16.92l-3.987 10.359c-5.519 1.314-10.791 3.502-15.622 6.477l-10.151-4.509-11.964 11.964 4.508 10.151c-2.975 4.831-5.164 10.103-6.477 15.623l-10.358 3.987v16.92l10.357 3.986c1.314 5.521 3.502 10.794 6.478 15.626l-4.507 10.148 11.964 11.965 10.151-4.509c4.831 2.975 10.102 5.163 15.622 6.477l3.987 10.359h16.92l3.986-10.357c5.521-1.314 10.794-3.502 15.626-6.478l10.148 4.508 11.964-11.965-4.508-10.151c2.975-4.831 5.163-10.103 6.476-15.622l10.359-3.987v-16.92zm-52.156 41.955c-16.298 0-29.508-13.21-29.508-29.508 0-16.299 13.21-29.508 29.508-29.508s29.508 13.21 29.508 29.508c.001 16.298-13.209 29.508-29.508 29.508zm-58.601 115.738c0-56.584-45.871-102.455-102.456-102.455-56.584 0-102.455 45.871-102.455 102.455 0 52.217 39.063 95.308 89.561 101.65v43.984l-.96-.014c-5.121-.077-9.376 4.052-9.453 9.174l-1.179 78.39c-.076 5.122 4.05 9.376 9.172 9.453l29.167.439c5.123.077 9.376-4.052 9.453-9.174l1.18-78.39c.077-5.122-4.052-9.377-9.173-9.454l-2.418-.036v-44.373c50.498-6.341 89.561-49.432 89.561-101.649zm-102.455 73.569c-40.631 0-73.569-32.938-73.569-73.569s32.938-73.569 73.569-73.569 73.569 32.938 73.569 73.569-32.938 73.569-73.569 73.569zm139.213 85.495c0-6.685 1.768-12.958 4.859-18.378l-61.657-55.604c-14.623 14.189-32.939 24.676-53.521 29.824v19.204c7.08 4.587 11.726 12.607 11.59 21.643l-1.179 78.39c-.21 13.952-11.74 25.141-25.692 24.931l-29.167-.439c-13.952-.21-25.139-11.74-24.93-25.692l.711-47.255c-1.183 2.939-4.061 5.014-7.423 5.014h-55.258c-4.418 0-8-3.582-8-8s3.582-8 8-8h55.258c3.447 0 6.385 2.181 7.51 5.238l.382-25.387c.005-.312.016-.622.032-.931-.539 3.894-3.881 6.893-7.923 6.893h-55.258c-4.418 0-8-3.582-8-8s3.582-8 8-8h55.258c4.418 0 8 3.582 8 8l-.001.051c.693-7.428 4.603-13.917 10.303-18.082v-19.578c-20.583-5.148-38.898-15.636-53.521-29.824l-61.657 55.604c3.091 5.421 4.859 11.694 4.859 18.378 0 15.058-8.963 28.028-21.843 33.867v19.122h47.98c3.366 0 6.42 1.37 8.629 3.579s3.579 5.261 3.579 8.629v47.98h253.506c4.636 0 8.417-3.781 8.417-8.417v-70.893c-12.879-5.838-21.843-18.809-21.843-33.867zm-241.668-44.737h55.258c4.418 0 8 3.582 8 8s-3.582 8-8 8h-55.258c-4.418 0-8-3.582-8-8s3.582-8 8-8zm215.493 136.75h-55.258c-4.418 0-8-3.582-8-8s3.582-8 8-8h55.258c4.418 0 8 3.582 8 8s-3.582 8-8 8zm0-30.188h-55.258c-4.418 0-8-3.582-8-8s3.582-8 8-8h55.258c4.418 0 8 3.582 8 8s-3.582 8-8 8zm0-30.187h-55.258c-4.418 0-8-3.582-8-8s3.582-8 8-8h55.258c4.418 0 8 3.582 8 8s-3.582 8-8 8zm-274.095-65.505c2.219 1.006 4.322 2.224 6.282 3.628l61.662-55.609c-15.929-20.259-25.343-45.766-25.343-73.215 0-27.638 9.469-53.066 25.338-73.219l-21.381-19.282c-4.21 9.685-16.699 14.946-27.021 8.189l-19.537-12.789zm62.846-270.443c-.937 1.28-2.072 2.48-3.423 3.566l-18.201 14.629 2.962 10.896 34.463 31.08c21.322-20.658 50.38-33.379 82.409-33.379s61.087 12.721 82.409 33.379l14.609-13.175-5.229-5.229 5.821-13.106c-.604-1.337-1.166-2.692-1.685-4.064l-13.381-5.151v-19.446zm259.267 78.512h-19.445l-5.152-13.384c-1.371-.518-2.725-1.079-4.06-1.683l-13.109 5.822-10.96-10.96-15.214 13.72c15.871 20.152 25.339 45.581 25.339 73.22 0 27.45-9.414 52.956-25.343 73.215l61.662 55.609c1.96-1.404 4.063-2.621 6.282-3.628zm-277.924 330.975v-36.189h-36.189z" fill-rule="evenodd"></path></svg>