<svg xmlns="http://www.w3.org/2000/svg" id="Layer_1" height="512" viewBox="0 0 512 512" width="512"><path d="m458.24 333-86.81 86.8-49.97-28.62c-1.57-.91-3.36-1.36-5.18-1.32l-64.21 1.37c-9.08.17-16.53-6.21-16.71-14.28-.08-3.75 1.47-7.37 4.36-10.18 3.08-3 7.24-4.71 11.82-4.81l40.31-1.24c3.99-.12 7.52-2.6 8.99-6.31s.59-7.93-2.23-10.75l-86.84-86.85c-1.94-1.94-3.06-4.44-3.15-7.04-.08-2.34.71-4.46 2.21-5.96s3.65-2.29 5.96-2.21c2.6.09 5.1 1.21 7.04 3.15l51.94 51.94 34.78 34.78c3.91 3.91 10.24 3.91 14.15 0 3.9-3.9 3.9-10.24 0-14.14l-34.79-34.78-.19-.2c-3.59-3.78-3.95-9.59-.74-12.8 3.27-3.27 9.22-2.84 12.99.93l7.22 7.22.04.04.02.02 27.98 27.97c1.95 1.96 4.51 2.93 7.07 2.93s5.12-.97 7.07-2.93c3.9-3.9 3.9-10.23 0-14.14l-28-28c-1.939-1.93-3.05-4.43-3.14-7.03-.08-2.34.7-4.46 2.2-5.97 1.51-1.5 3.61-2.29 5.96-2.2 2.61.09 5.11 1.2 7.04 3.14l12.87 12.87 21.21 21.21c1.96 1.95 4.51 2.93 7.07 2.93s5.12-.98 7.08-2.93c3.9-3.9 3.9-10.23 0-14.14l-21.22-21.21c-.03-.03-.05-.05-.07-.08-3.71-3.78-4.11-9.67-.86-12.92 1.51-1.52 3.4-3.4 14.98 2.49l36.45 24.52zm-74.39-230.72c0 36.54-29.73 66.27-66.28 66.27s-66.28-29.73-66.28-66.27c0-36.55 29.73-66.28 66.28-66.28s66.28 29.73 66.28 66.28zm-27.8-27.67c-4.29-3.47-10.59-2.81-14.06 1.48l-26.09 32.25-16.46-12.53c-4.4-3.35-10.67-2.5-14.02 1.9-3.34 4.39-2.49 10.67 1.91 14.01l24.18 18.41c1.81 1.37 3.94 2.04 6.05 2.04 2.92 0 5.81-1.27 7.78-3.71l32.2-39.79c3.47-4.29 2.81-10.59-1.49-14.06zm-48.48 363.05v8.72c0 16.33-13.29 29.62-29.62 29.62h-194.57c-16.33 0-29.62-13.29-29.62-29.62v-8.72zm-97.18 21.15c0-5.52-4.47-10-10-10h-39.45c-5.52 0-10 4.48-10 10s4.48 10 10 10h39.45c5.53 0 10-4.48 10-10zm-13.7-229.14c-5.47 5.46-8.33 12.85-8.05 20.79.26 7.68 3.45 14.96 8.979 20.49l70.5 70.49-17.11.53c-9.56.21-18.52 3.92-25.24 10.47-6.91 6.73-10.6 15.58-10.4 24.94.41 19.09 17.1 34.3 37.13 33.85l55.07-1.18v7.61h-253.809v-305.38h178.11c4.59 39.6 36.1 71.1 75.7 75.69v49.24c-2.92 3.14-5.02 6.85-6.21 10.9-9.38-2.19-19.45.22-26.53 7.29-2.1 2.1-3.79 4.47-5.06 7l-31.8-31.8c-5.53-5.53-12.81-8.72-20.49-8.98-7.94-.28-15.32 2.58-20.79 8.05zm-33.83-5.76c-3.9-3.91-10.23-3.91-14.14 0l-25.52 25.52c-3.91 3.9-3.91 10.24 0 14.14 1.95 1.95 4.51 2.93 7.07 2.93s5.12-.98 7.07-2.93l25.52-25.52c3.91-3.91 3.91-10.24 0-14.14zm8.27-33.94-25.9-25.91c-3.91-3.9-10.24-3.9-14.15 0-3.9 3.91-3.9 10.24 0 14.15l25.91 25.9c1.95 1.96 4.51 2.93 7.07 2.93s5.12-.97 7.07-2.93c3.91-3.9 3.91-10.23 0-14.14zm19.05 6.62c1.95 1.96 4.51 2.93 7.07 2.93s5.12-.97 7.07-2.93l25.52-25.52c3.91-3.9 3.91-10.24 0-14.14-3.9-3.9-10.23-3.9-14.14 0l-25.52 25.52c-3.91 3.91-3.91 10.24 0 14.14zm54.47-140.38c-6.77 10.67-11.26 22.92-12.78 36.07h-178.11v-6.45c0-16.34 13.29-29.62 29.62-29.62zm-112.84 18.03c0-5.52-4.47-10-10-10h-30.37c-5.52 0-10 4.48-10 10s4.48 10 10 10h30.37c5.53 0 10-4.48 10-10zm96.08 0c0-5.52-4.47-10-10-10h-67.6c-5.52 0-10 4.48-10 10s4.48 10 10 10h67.6c5.53 0 10-4.48 10-10z"></path></svg>